<?xml version="1.0" encoding="utf-8"?>
<!-- Generator: Adobe Illustrator 25.4.1, SVG Export Plug-In . SVG Version: 6.00 Build 0)  -->
<svg version="1.1" id="Layer_1" xmlns="http://www.w3.org/2000/svg" xmlns:xlink="http://www.w3.org/1999/xlink" x="0px" y="0px"
	 viewBox="0 0 43.1 14.7" style="enable-background:new 0 0 43.1 14.7;" xml:space="preserve">
<style type="text/css">
	.st0{fill:#151516;}
</style>
<path class="st0" d="M42,8.4c0.6,0,1-0.4,1-1s-0.4-1-1-1V8.4z M0.3,6.7c-0.4,0.4-0.4,1,0,1.4l6.4,6.4c0.4,0.4,1,0.4,1.4,0
	c0.4-0.4,0.4-1,0-1.4L2.5,7.4l5.7-5.7c0.4-0.4,0.4-1,0-1.4c-0.4-0.4-1-0.4-1.4,0L0.3,6.7z M42,6.4H1v2h41V6.4z"/>
</svg>
